<svg xmlns="http://www.w3.org/2000/svg" viewBox="0 0 180 50" width="180" height="50" style="width: 100%; height: 100%; transform: translate3d(0px, 0px, 0px);" preserveAspectRatio="xMidYMid meet"><defs><clipPath id="__lottie_element_215"><rect width="180" height="50" x="0" y="0"></rect></clipPath></defs><g clip-path="url(#__lottie_element_215)"><g style="display: block;" transform="matrix(1,0,0,1,0,0)" opacity="1"><g opacity="1" transform="matrix(1,0,0,1,147.60299682617188,9.83899974822998)"><path stroke-linecap="round" stroke-linejoin="miter" fill-opacity="0" stroke-miterlimit="10" stroke="#de675f" stroke-opacity="1" stroke-width="3" d=" M-30.72100067138672,-2.9820001125335693 C-30.72100067138672,-2.9820001125335693 -9.50100040435791,-0.4440000057220459 10.833000183105469,-5.888999938964844 C10.833000183105469,-5.888999938964844 28.38800048828125,-10.222000122070312 29.610000610351562,-0.22200000286102295 C29.610000610351562,-0.22200000286102295 30.72100067138672,7.333000183105469 23.944000244140625,8.555999755859375 C23.944000244140625,8.555999755859375 16.05500030517578,10.222000122070312 15.166000366210938,5.443999767303467 C15.166000366210938,5.443999767303467 15.055000305175781,1.444000005722046 19.83300018310547,3.3329999446868896"></path></g></g><g style="display: block;" transform="matrix(1,0,0,1,0,0)" opacity="1"><g opacity="1" transform="matrix(1,0,0,1,32.499000549316406,9.83899974822998)"><path stroke-linecap="round" stroke-linejoin="miter" fill-opacity="0" stroke-miterlimit="10" stroke="#de675f" stroke-opacity="1" stroke-width="3" d=" M30.72100067138672,-2.9820001125335693 C30.72100067138672,-2.9820001125335693 9.50100040435791,-0.4440000057220459 -10.833000183105469,-5.888999938964844 C-10.833000183105469,-5.888999938964844 -28.38800048828125,-10.222000122070312 -29.610000610351562,-0.22200000286102295 C-29.610000610351562,-0.22200000286102295 -30.72100067138672,7.333000183105469 -23.944000244140625,8.555999755859375 C-23.944000244140625,8.555999755859375 -16.05500030517578,10.222000122070312 -15.166000366210938,5.443999767303467 C-15.166000366210938,5.443999767303467 -15.055000305175781,1.444000005722046 -19.83300018310547,3.3329999446868896"></path></g></g><g style="display: block;" transform="matrix(1,0,0,1,0,0)" opacity="0.3500000000371095"><g opacity="1" transform="matrix(1,0,0,1,109.0530014038086,32.75400161743164)"><path fill="#de675f" fill-opacity="1" d=" M-6.520999908447266,-10.836999893188477 C-6.250999927520752,-10.836999893188477 -6.186999797821045,-10.855999946594238 -6.1519999504089355,-10.833000183105469 C-2.813999891281128,-8.597999572753906 0.2199999988079071,-6.048999786376953 2.372999906539917,-2.5880000591278076 C2.927999973297119,-1.6970000267028809 3.5269999504089355,-0.8330000042915344 4.074999809265137,0.061000000685453415 C5.215000152587891,1.9160000085830688 5.9070000648498535,3.9539999961853027 6.34499979019165,6.065999984741211 C6.521999835968018,6.925000190734863 6.504000186920166,7.8480000495910645 6.434000015258789,8.729999542236328 C6.316999912261963,10.206000328063965 5.188000202178955,10.855999946594238 3.86299991607666,10.217000007629395 C2.5269999504089355,9.571999549865723 1.3300000429153442,8.720999717712402 0.5379999876022339,7.414999961853027 C-1.312999963760376,4.361000061035156 -3.0739998817443848,1.281000018119812 -3.9839999675750732,-2.2320001125335693 C-4.521999835968018,-4.308000087738037 -5.353000164031982,-6.308000087738037 -6.041999816894531,-8.343999862670898 C-6.191999912261963,-8.789999961853027 -6.323999881744385,-9.244000434875488 -6.416999816894531,-9.704000473022461 C-6.488999843597412,-10.053999900817871 -6.486000061035156,-10.418999671936035 -6.520999908447266,-10.836999893188477z M4.538000106811523,8.222999572753906 C4.46999979019165,7.47599983215332 4.4720001220703125,7.002999782562256 4.376999855041504,6.551000118255615 C3.999000072479248,4.745999813079834 3.4839999675750732,2.9730000495910645 2.5209999084472656,1.3890000581741333 C1.5679999589920044,-0.17900000512599945 0.5419999957084656,-1.7089999914169312 -0.5139999985694885,-3.2109999656677246 C-1.0460000038146973,-3.9679999351501465 -1.6390000581741333,-4.708000183105469 -2.6519999504089355,-5.336999893188477 C-2.322000026702881,-4.243000030517578 -2.00600004196167,-3.3610000610351562 -1.7940000295639038,-2.4539999961853027 C-1.0420000553131104,0.7720000147819519 0.675000011920929,3.5460000038146973 2.2890000343322754,6.369999885559082 C2.742000102996826,7.163000106811523 3.434000015258789,7.693999767303467 4.538000106811523,8.222999572753906z"></path></g></g><g style="display: block;" transform="matrix(1,0,0,1,1,0)" opacity="1"><g opacity="1" transform="matrix(1,0,0,1,70.9469985961914,32.75400161743164)"><path fill="#de675f" fill-opacity="1" d=" M6.418000221252441,-9.70300006866455 C6.324999809265137,-9.244000434875488 6.191999912261963,-8.788999557495117 6.041999816894531,-8.343999862670898 C5.353000164031982,-6.307000160217285 4.5229997634887695,-4.308000087738037 3.984999895095825,-2.2330000400543213 C3.0739998817443848,1.281000018119812 1.312999963760376,4.361000061035156 -0.5370000004768372,7.414999961853027 C-1.3300000429153442,8.722000122070312 -2.5260000228881836,9.572999954223633 -3.861999988555908,10.217000007629395 C-5.186999797821045,10.857000350952148 -6.316999912261963,10.206000328063965 -6.433000087738037,8.729999542236328 C-6.502999782562256,7.8470001220703125 -6.521999835968018,6.926000118255615 -6.343999862670898,6.066999912261963 C-5.906000137329102,3.9539999961853027 -5.214000225067139,1.9149999618530273 -4.074999809265137,0.061000000685453415 C-3.5260000228881836,-0.8330000042915344 -2.927000045776367,-1.6970000267028809 -2.372999906539917,-2.5880000591278076 C-0.21899999678134918,-6.048999786376953 2.813999891281128,-8.597999572753906 6.151000022888184,-10.833000183105469 C6.186999797821045,-10.857000350952148 6.251999855041504,-10.836999893188477 6.521999835968018,-10.836999893188477 C6.486999988555908,-10.418000221252441 6.488999843597412,-10.053000450134277 6.418000221252441,-9.70300006866455z M-2.2880001068115234,6.369999885559082 C-0.675000011920929,3.546999931335449 1.0420000553131104,0.7720000147819519 1.7940000295639038,-2.4539999961853027 C2.00600004196167,-3.3610000610351562 2.322999954223633,-4.243000030517578 2.6519999504089355,-5.336999893188477 C1.6390000581741333,-4.708000183105469 1.0460000038146973,-3.9679999351501465 0.5130000114440918,-3.2100000381469727 C-0.5429999828338623,-1.7079999446868896 -1.5670000314712524,-0.17900000512599945 -2.5209999084472656,1.3899999856948853 C-3.4839999675750732,2.9739999771118164 -3.997999906539917,4.744999885559082 -4.376999855041504,6.550000190734863 C-4.4710001945495605,7.002999782562256 -4.468999862670898,7.47599983215332 -4.5370001792907715,8.222000122070312 C-3.434000015258789,7.692999839782715 -2.742000102996826,7.164000034332275 -2.2880001068115234,6.369999885559082z"></path></g></g><g style="display: block;" transform="matrix(1,0,0,1,0,0)" opacity="1"><g opacity="1" transform="matrix(1,0,0,1,124.4229965209961,18.44499969482422)"><path fill="#de675f" fill-opacity="1" d=" M-22.68400001525879,-8.480999946594238 C-22.486000061035156,-9.154999732971191 -22,-9.381999969482422 -21.465999603271484,-9.383999824523926 C-20.68600082397461,-9.38700008392334 -19.89299964904785,-9.343999862670898 -19.12700080871582,-9.20300006866455 C-15.307000160217285,-8.498000144958496 -11.49899959564209,-7.7179999351501465 -7.673999786376953,-7.041999816894531 C-6.229000091552734,-6.7870001792907715 -4.750999927520752,-6.714000225067139 -3.2839999198913574,-6.603000164031982 C-0.9789999723434448,-6.428999900817871 1.3329999446868896,-6.340000152587891 3.634000062942505,-6.13100004196167 C6.980999946594238,-5.827000141143799 10.347999572753906,-5.651000022888184 13.645999908447266,-4.954999923706055 C15.710000038146973,-4.519999980926514 17.645999908447266,-3.6740000247955322 19.527999877929688,-2.746000051498413 C20.26300048828125,-2.384000062942505 20.920000076293945,-1.7990000247955322 21.50200080871582,-1.2089999914169312 C22.39900016784668,-0.2980000078678131 22.68400001525879,0.828000009059906 22.509000778198242,2.125999927520752 C22.17300033569336,4.629000186920166 20.701000213623047,6.244999885559082 18.509000778198242,7.193999767303467 C16.288999557495117,8.154000282287598 13.947999954223633,8.711999893188477 11.517999649047852,8.979000091552734 C7.804999828338623,9.38700008392334 4.175000190734863,8.956000328063965 0.5609999895095825,8.20199966430664 C-0.7739999890327454,7.923999786376953 -2.078000068664551,7.504000186920166 -3.4049999713897705,7.182000160217285 C-5.422999858856201,6.691999912261963 -7.244999885559082,5.7779998779296875 -8.989999771118164,4.682000160217285 C-11.982000350952148,2.802999973297119 -14.668999671936035,0.5220000147819519 -17.367000579833984,-1.7400000095367432 C-18.375999450683594,-2.5859999656677246 -19.16200065612793,-3.63100004196167 -19.874000549316406,-4.754000186920166 C-20.573999404907227,-5.859000205993652 -21.444000244140625,-6.855999946594238 -22.240999221801758,-7.89900016784668 C-22.395999908447266,-8.104000091552734 -22.552000045776367,-8.307999610900879 -22.68400001525879,-8.480999946594238z"></path></g></g><g style="display: block;" transform="matrix(1,0,0,1,0,0)" opacity="1"><g opacity="1" transform="matrix(1,0,0,1,89.69400024414062,28.767000198364258)"><path fill="#de675f" fill-opacity="1" d=" M1.7630000114440918,-20.17099952697754 C1.5700000524520874,-20.09600067138672 1.430999994277954,-20.08799934387207 1.3940000534057617,-20.02199935913086 C0.6019999980926514,-18.60099983215332 -0.18400000035762787,-17.177000045776367 -0.9589999914169312,-15.746999740600586 C-1.2599999904632568,-15.192999839782715 -1.5080000162124634,-14.609999656677246 -1.8200000524520874,-14.062000274658203 C-2.8910000324249268,-12.180000305175781 -3.7249999046325684,-10.199999809265137 -4.389999866485596,-8.142999649047852 C-4.421999931335449,-8.043000221252441 -4.453999996185303,-7.940999984741211 -4.49399995803833,-7.843999862670898 C-6.293000221252441,-3.433000087738037 -7.201000213623047,1.2100000381469727 -8.03600025177002,5.868000030517578 C-8.428000450134277,8.053000450134277 -8.427000045776367,10.270000457763672 -8.175000190734863,12.472999572753906 C-7.997000217437744,14.02299976348877 -7.410999774932861,15.428000450134277 -6.276000022888184,16.54199981689453 C-5.493000030517578,17.31100082397461 -4.823999881744385,18.215999603271484 -3.7929999828338623,18.70599937438965 C-0.7049999833106995,20.17099952697754 2.7230000495910645,19.833999633789062 5.190000057220459,16.56399917602539 C6.465000152587891,14.873000144958496 7.361000061035156,13.00100040435791 7.75,10.866999626159668 C8.428000450134277,7.1529998779296875 8.399999618530273,3.434999942779541 8.01099967956543,-0.2879999876022339 C7.754000186920166,-2.743000030517578 7.433000087738037,-5.197000026702881 7.000999927520752,-7.627999782562256 C6.538000106811523,-10.236000061035156 5.443999767303467,-12.618000030517578 4.133999824523926,-14.923999786376953 C3.3350000381469727,-16.33099937438965 2.7720000743865967,-17.874000549316406 2.1059999465942383,-19.35700035095215 C1.9850000143051147,-19.625999450683594 1.8760000467300415,-19.900999069213867 1.7630000114440918,-20.17099952697754z"></path></g></g><g style="display: block;" transform="matrix(1,0,0,1,0,0)" opacity="1"><g opacity="1" transform="matrix(1,0,0,1,55.57699966430664,18.44499969482422)"><path fill="#de675f" fill-opacity="1" d=" M22.68400001525879,-8.480999946594238 C22.486000061035156,-9.154999732971191 22,-9.381999969482422 21.465999603271484,-9.383999824523926 C20.68600082397461,-9.38700008392334 19.89299964904785,-9.343999862670898 19.12700080871582,-9.20300006866455 C15.307000160217285,-8.498000144958496 11.49899959564209,-7.7179999351501465 7.673999786376953,-7.041999816894531 C6.229000091552734,-6.7870001792907715 4.750999927520752,-6.714000225067139 3.2839999198913574,-6.603000164031982 C0.9789999723434448,-6.428999900817871 -1.3329999446868896,-6.340000152587891 -3.634000062942505,-6.13100004196167 C-6.980999946594238,-5.827000141143799 -10.347999572753906,-5.651000022888184 -13.645999908447266,-4.954999923706055 C-15.710000038146973,-4.519999980926514 -17.645999908447266,-3.6740000247955322 -19.527999877929688,-2.746000051498413 C-20.26300048828125,-2.384000062942505 -20.920000076293945,-1.7990000247955322 -21.50200080871582,-1.2089999914169312 C-22.39900016784668,-0.2980000078678131 -22.68400001525879,0.828000009059906 -22.509000778198242,2.125999927520752 C-22.17300033569336,4.629000186920166 -20.701000213623047,6.244999885559082 -18.509000778198242,7.193999767303467 C-16.288999557495117,8.154000282287598 -13.947999954223633,8.711999893188477 -11.517999649047852,8.979000091552734 C-7.804999828338623,9.38700008392334 -4.175000190734863,8.956000328063965 -0.5609999895095825,8.20199966430664 C0.7739999890327454,7.923999786376953 2.078000068664551,7.504000186920166 3.4049999713897705,7.182000160217285 C5.422999858856201,6.691999912261963 7.244999885559082,5.7779998779296875 8.989999771118164,4.682000160217285 C11.982000350952148,2.802999973297119 14.668999671936035,0.5220000147819519 17.367000579833984,-1.7400000095367432 C18.375999450683594,-2.5859999656677246 19.16200065612793,-3.63100004196167 19.874000549316406,-4.754000186920166 C20.573999404907227,-5.859000205993652 21.444000244140625,-6.855999946594238 22.240999221801758,-7.89900016784668 C22.395999908447266,-8.104000091552734 22.552000045776367,-8.307999610900879 22.68400001525879,-8.480999946594238z"></path></g></g></g></svg>